<?xml version="1.0" encoding="UTF-8" standalone="no"?>
<svg xmlns="http://www.w3.org/2000/svg"
     xmlns:svg="http://www.w3.org/2000/svg"
     version="1.1"
     width="185.538mm" height="119.577mm"
     viewBox="0 0 526 339">
  <path id="Selection"
        fill="white" stroke="none"
        d="M 443.00,42.00
           C 443.00,42.00 443.00,30.00 443.00,30.00
             442.94,21.21 441.83,21.84 429.00,19.75
             421.12,18.48 407.88,17.04 400.00,17.00
             400.00,17.00 386.00,16.00 386.00,16.00
             356.20,15.66 327.27,20.15 299.00,29.67
             290.96,32.37 282.59,35.96 275.00,39.75
             272.33,41.09 265.51,45.17 263.00,45.17
             260.46,45.17 252.77,40.63 250.00,39.25
             242.25,35.39 231.26,30.98 223.00,28.34
             205.40,22.72 187.40,18.92 169.00,17.04
             169.00,17.04 159.00,17.04 159.00,17.04
             159.00,17.04 139.00,16.00 139.00,16.00
             139.00,16.00 129.00,17.00 129.00,17.00
             129.00,17.00 120.00,17.00 120.00,17.00
             120.00,17.00 98.00,19.73 98.00,19.73
             94.32,20.26 86.18,20.74 83.74,23.51
             81.09,26.51 82.00,37.78 82.00,42.00
             75.15,42.00 64.75,41.25 61.74,49.00
             60.87,51.24 61.00,54.59 61.00,57.00
             61.00,57.00 61.00,131.00 61.00,131.00
             61.00,143.51 58.33,153.61 68.00,163.00
             68.00,163.00 69.00,149.00 69.00,149.00
             69.00,149.00 69.00,127.00 69.00,127.00
             69.00,127.00 69.00,61.00 69.00,61.00
             69.00,58.81 68.79,55.16 70.02,53.31
             72.11,50.18 79.89,50.18 81.98,53.31
             83.21,55.16 83.00,58.81 82.84,61.00
             82.84,61.00 82.84,107.00 82.84,107.00
             82.84,107.00 82.84,115.00 82.84,115.00
             82.84,115.00 82.00,132.00 82.00,132.00
             82.00,132.00 91.00,133.00 91.00,133.00
             91.00,133.00 91.00,39.00 91.00,39.00
             91.00,36.79 90.79,33.19 92.02,31.31
             94.11,28.12 104.20,27.55 108.00,27.17
             108.00,27.17 153.00,25.00 153.00,25.00
             153.00,25.00 163.00,25.91 163.00,25.91
             187.55,27.60 212.47,32.49 235.00,42.77
             239.97,45.04 255.27,51.00 257.69,55.21
             259.19,57.83 259.00,62.03 259.00,65.00
             259.00,65.00 259.00,87.00 259.00,87.00
             245.16,88.83 236.88,89.81 224.00,96.27
             215.86,100.35 209.40,105.60 203.00,112.00
             185.83,129.18 178.93,147.18 177.00,171.00
             177.00,171.00 169.00,170.00 169.00,170.00
             169.81,167.10 170.10,163.05 168.49,160.32
             166.72,157.32 163.30,158.46 162.30,162.06
             161.94,163.41 162.00,166.50 162.30,168.00
             161.99,171.58 161.58,186.53 162.30,188.85
             163.84,191.71 166.99,192.38 168.83,189.68
             170.36,187.43 170.00,181.78 170.00,179.00
             170.00,179.00 177.00,179.00 177.00,179.00
             178.50,211.70 197.40,240.21 227.00,254.22
             236.95,258.93 247.96,261.97 259.00,262.00
             259.00,262.00 259.00,309.00 259.00,309.00
             224.17,289.17 179.72,280.94 140.00,281.00
             128.00,281.02 103.42,283.70 92.00,287.00
             90.36,280.26 91.00,271.10 91.00,264.00
             91.00,264.00 91.00,224.00 91.00,224.00
             91.00,212.08 91.80,204.10 86.00,193.00
             83.00,201.59 82.02,200.50 82.00,210.00
             82.00,210.00 82.64,272.00 82.64,272.00
             82.64,272.00 82.64,277.00 82.64,277.00
             82.64,277.00 82.64,287.00 82.64,287.00
             82.84,289.29 82.25,292.52 83.89,294.40
             85.36,296.08 87.98,295.99 90.00,295.83
             90.00,295.83 106.00,293.08 106.00,293.08
             106.00,293.08 138.00,290.00 138.00,290.00
             165.41,289.96 184.49,292.01 211.00,299.58
             220.26,302.22 230.64,305.26 239.00,310.00
             239.00,310.00 183.00,310.00 183.00,310.00
             183.00,310.00 69.00,310.00 69.00,310.00
             69.00,310.00 69.00,208.00 69.00,208.00
             69.00,208.00 60.00,206.00 60.00,206.00
             61.73,213.13 61.00,228.01 61.00,236.00
             61.00,236.00 61.00,290.00 61.00,290.00
             61.00,296.73 58.96,313.84 65.21,317.55
             68.01,319.21 71.85,318.99 75.00,319.00
             75.00,319.00 230.00,319.00 230.00,319.00
             244.15,319.03 245.75,327.93 264.00,327.92
             276.91,327.92 283.16,321.37 289.00,319.56
             291.13,318.89 293.77,319.00 296.00,319.00
             296.00,319.00 371.00,319.00 371.00,319.00
             371.00,319.00 451.00,319.00 451.00,319.00
             463.18,318.98 464.98,315.73 465.00,304.00
             465.00,304.00 465.00,206.00 465.00,206.00
             465.00,206.00 456.01,208.00 456.01,208.00
             456.01,208.00 456.01,295.00 456.01,295.00
             456.01,295.00 457.00,310.00 457.00,310.00
             457.00,310.00 288.00,310.00 288.00,310.00
             292.37,306.23 308.81,301.35 315.00,299.58
             341.01,292.16 363.06,289.69 390.00,290.00
             390.00,290.00 425.00,294.00 425.00,294.00
             428.58,294.69 437.70,296.95 440.69,294.98
             443.45,293.15 442.99,288.90 442.87,286.00
             442.87,286.00 442.87,236.00 442.87,236.00
             442.87,236.00 442.87,201.00 442.87,201.00
             442.00,198.10 440.61,195.45 439.00,193.00
             439.00,193.00 435.00,213.00 435.00,213.00
             435.00,213.00 435.00,287.00 435.00,287.00
             397.06,276.95 345.33,280.42 308.00,292.02
             308.00,292.02 281.00,302.31 281.00,302.31
             281.00,302.31 267.00,309.00 267.00,309.00
             268.90,301.18 268.00,271.98 268.00,262.00
             310.98,261.61 348.62,221.45 349.00,179.00
             349.00,179.00 356.00,179.00 356.00,179.00
             356.00,179.00 356.00,183.00 356.00,183.00
             356.02,185.76 355.81,191.37 359.91,191.37
             361.12,191.37 361.88,190.72 362.40,189.68
             363.07,188.35 362.99,185.51 363.00,184.00
             363.00,184.00 363.00,165.00 363.00,165.00
             362.96,163.01 363.12,159.47 360.70,158.74
             355.56,157.19 356.26,165.90 355.40,167.85
             354.11,170.80 351.77,170.77 349.00,171.00
             347.35,135.13 326.28,105.89 293.00,92.45
             284.49,89.01 275.98,88.18 267.00,87.00
             267.00,87.00 267.00,63.00 267.00,63.00
             267.00,60.62 266.80,57.29 268.02,55.21
             269.53,52.66 273.42,51.05 276.00,49.75
             276.00,49.75 295.00,41.01 295.00,41.01
             327.43,27.67 358.33,24.60 393.00,25.00
             393.00,25.00 402.00,25.83 402.00,25.83
             402.00,25.83 422.00,27.72 422.00,27.72
             425.10,28.12 431.18,28.28 433.40,30.58
             435.33,32.58 434.99,36.40 435.00,39.00
             435.00,39.00 435.00,132.00 435.00,132.00
             435.00,132.00 443.00,133.00 443.00,133.00
             443.00,133.00 443.00,51.00 443.00,51.00
             443.00,51.00 456.00,51.00 456.00,51.00
             456.00,51.00 456.00,124.00 456.00,124.00
             456.00,133.91 455.43,154.29 459.00,163.00
             459.00,163.00 464.81,152.00 464.81,152.00
             464.81,152.00 464.81,117.00 464.81,117.00
             464.81,117.00 464.81,57.00 464.81,57.00
             465.00,55.02 465.08,51.85 464.81,50.00
             461.92,40.33 450.69,42.00 443.00,42.00 Z
           M 70.00,44.00
           C 70.00,44.00 71.00,44.00 71.00,44.00
             71.00,44.00 70.00,45.00 70.00,45.00
             70.00,45.00 70.00,44.00 70.00,44.00 Z
           M 256.00,96.22
           C 256.00,96.22 264.00,96.22 264.00,96.22
             300.44,96.84 331.27,123.39 338.55,159.00
             340.19,167.04 340.09,170.94 340.00,179.00
             339.68,205.95 322.91,230.76 300.00,243.99
             285.15,252.56 274.47,253.19 258.00,253.00
             250.09,252.90 242.31,250.69 235.00,247.80
             206.79,236.62 186.05,207.59 186.00,177.00
             186.00,177.00 186.00,171.00 186.00,171.00
             186.36,140.75 207.42,112.62 235.00,101.45
             243.22,98.12 247.54,97.70 256.00,96.22 Z
           M 131.00,115.63
           C 122.49,116.90 121.10,122.33 121.00,130.00
             121.00,130.00 121.00,217.00 121.00,217.00
             121.01,221.91 120.98,226.65 124.13,230.78
             128.12,236.01 136.20,235.45 139.59,229.89
             142.02,225.91 141.99,221.49 142.00,217.00
             142.00,217.00 142.00,131.00 142.00,131.00
             141.90,122.83 140.17,116.55 131.00,115.63 Z
           M 391.02,116.60
           C 384.30,120.31 384.03,126.01 384.00,133.00
             384.00,133.00 384.00,216.00 384.00,216.00
             384.01,220.96 383.99,226.88 387.43,230.86
             391.77,235.90 399.31,235.43 402.99,229.89
             405.22,226.55 404.99,222.82 405.00,219.00
             405.00,219.00 405.00,130.00 405.00,130.00
             404.88,120.78 401.19,114.46 391.02,116.60 Z
           M 131.00,227.00
           C 126.31,219.88 128.00,210.22 128.11,202.00
             128.11,202.00 128.11,148.00 128.11,148.00
             128.11,148.00 128.11,129.02 128.11,129.02
             128.70,127.32 130.06,123.74 132.47,125.17
             135.10,126.73 135.00,135.21 135.00,138.00
             135.00,138.00 135.00,202.00 135.00,202.00
             135.00,209.81 137.03,221.26 131.00,227.00 Z
           M 394.00,227.00
           C 389.75,219.08 391.00,208.76 391.00,200.00
             391.00,200.00 391.00,149.00 391.00,149.00
             391.00,143.51 390.68,135.13 391.59,130.00
             391.90,128.27 392.66,123.54 395.55,125.17
             398.34,126.74 398.00,133.22 398.00,136.00
             398.00,136.00 398.00,202.00 398.00,202.00
             398.00,209.81 400.03,221.26 394.00,227.00 Z
           M 241.23,137.75
           C 236.25,141.10 238.00,149.58 238.00,155.00
             238.00,155.00 238.00,202.00 238.00,202.00
             238.01,205.18 237.45,210.85 241.23,212.16
             244.86,213.42 251.88,208.47 255.00,206.60
             255.00,206.60 289.00,186.01 289.00,186.01
             292.53,183.94 303.45,179.05 302.26,174.08
             301.47,170.79 295.74,168.19 293.00,166.55
             293.00,166.55 267.00,150.68 267.00,150.68
             267.00,150.68 245.00,137.75 245.00,137.75
             242.96,137.17 243.10,137.47 241.23,137.75 Z
           M 103.00,196.00
           C 97.95,180.42 101.04,163.55 95.78,148.00
             92.68,138.84 84.38,137.84 79.70,144.11
             77.02,147.70 76.35,153.66 75.73,158.00
             74.13,169.20 75.17,183.92 68.00,193.00
             68.00,193.00 59.44,164.00 59.44,164.00
             57.41,160.02 54.61,157.81 50.00,158.13
             42.03,158.67 41.05,166.05 34.96,169.77
             29.93,172.85 21.84,171.99 16.00,172.00
             14.37,172.00 10.82,171.86 9.43,172.57
             8.42,173.09 7.78,173.90 7.74,175.08
             7.62,179.21 13.25,178.98 16.00,179.00
             30.55,179.10 42.12,181.12 49.00,165.00
             49.00,165.00 52.00,165.00 52.00,165.00
             53.15,170.05 58.90,192.82 60.99,195.95
             64.43,201.08 71.01,202.68 75.44,197.77
             79.07,193.77 79.90,187.14 80.75,182.00
             80.75,182.00 86.00,149.00 86.00,149.00
             86.00,149.00 88.00,149.00 88.00,149.00
             90.10,158.32 91.54,165.32 91.96,175.00
             92.27,182.06 92.37,194.12 96.70,199.89
             101.26,205.98 109.30,205.11 112.24,197.00
             115.03,189.27 114.02,170.04 114.00,161.00
             113.99,158.14 114.50,151.61 110.07,151.74
             108.88,151.78 108.02,152.45 107.21,153.43
             105.94,155.84 106.96,161.97 107.21,165.00
             107.11,174.85 108.57,187.59 103.00,196.00 Z
           M 456.00,192.00
           C 450.91,179.17 451.92,171.77 450.13,159.00
             449.45,154.19 448.11,146.05 444.44,142.65
             438.02,136.68 431.63,142.31 429.36,149.00
             426.51,157.43 426.52,169.10 425.91,178.00
             425.91,178.00 423.00,196.00 423.00,196.00
             416.83,187.37 419.02,171.46 419.00,161.00
             419.00,158.88 419.20,155.09 417.98,153.33
             416.22,150.81 413.27,151.59 412.16,155.06
             411.94,156.40 412.00,159.50 412.16,161.00
             411.98,168.83 410.95,190.88 413.48,197.00
             417.14,205.84 425.89,205.73 429.72,198.96
             436.47,187.06 431.03,161.08 439.00,148.00
             439.00,148.00 441.69,157.00 441.69,157.00
             443.45,166.22 444.44,186.64 448.05,193.98
             448.70,195.32 449.48,196.54 450.53,197.61
             452.24,199.34 454.53,200.55 457.00,200.60
             464.98,200.76 467.99,189.15 469.20,183.00
             471.28,172.38 470.38,175.45 474.00,165.00
             479.40,169.25 480.38,173.16 485.01,176.30
             490.66,180.13 502.14,179.01 509.00,179.00
             511.72,178.99 519.37,179.38 517.34,174.30
             516.23,171.49 511.46,172.00 509.00,172.00
             503.66,171.99 495.57,172.83 491.04,169.99
             485.42,166.48 482.69,156.73 473.01,158.24
             468.15,159.00 466.50,162.84 465.02,167.00
             465.02,167.00 458.00,192.00 458.00,192.00
             458.00,192.00 456.00,192.00 456.00,192.00 Z
           M 151.13,141.74
           C 147.26,144.16 148.01,146.79 148.00,151.00
             148.00,151.00 148.00,195.00 148.00,195.00
             148.04,197.80 148.01,203.14 152.05,203.14
             153.27,203.14 154.28,202.54 154.98,201.55
             156.22,199.81 156.00,196.11 156.00,194.00
             156.00,194.00 156.00,150.00 156.00,150.00
             155.97,145.66 156.43,141.97 151.13,141.74 Z
           M 373.09,141.74
           C 369.27,144.18 370.01,146.82 370.00,151.00
             370.00,151.00 370.00,195.00 370.00,195.00
             370.02,197.69 369.98,204.23 374.70,202.34
             377.57,201.20 377.16,194.68 377.09,192.00
             377.09,192.00 377.09,183.00 377.09,183.00
             377.09,183.00 377.09,149.00 377.09,149.00
             376.97,145.23 377.65,141.95 373.09,141.74 Z" />
</svg>
